<?xml version="1.0" encoding="utf-8"?>
<!-- Generated by IcoMoon.io -->
<!DOCTYPE svg PUBLIC "-//W3C//DTD SVG 1.1//EN" "http://www.w3.org/Graphics/SVG/1.1/DTD/svg11.dtd">
<svg version="1.1" xmlns="http://www.w3.org/2000/svg" xmlns:xlink="http://www.w3.org/1999/xlink" width="200" height="200" viewBox="0 0 200 200">
<path d="M198.176 160.676c-0.001-0.001-0.002-0.002-0.002-0.002l-60.673-60.674 60.673-60.674c0.001-0.001 0.002-0.001 0.002-0.002 0.653-0.654 1.125-1.417 1.428-2.23 0.829-2.222 0.356-4.821-1.43-6.607l-28.661-28.661c-1.787-1.786-4.385-2.259-6.607-1.43-0.813 0.303-1.576 0.775-2.23 1.428 0 0.001-0.001 0.001-0.002 0.002l-60.673 60.674-60.673-60.674c-0.001-0.001-0.001-0.001-0.002-0.002-0.654-0.653-1.417-1.125-2.229-1.428-2.223-0.83-4.821-0.357-6.607 1.43l-28.662 28.662c-1.787 1.787-2.259 4.385-1.43 6.607 0.303 0.813 0.775 1.577 1.428 2.23 0.001 0 0.001 0.001 0.002 0.002l60.674 60.673-60.674 60.674c-0 0.001-0.001 0.001-0.002 0.002-0.653 0.654-1.125 1.417-1.429 2.229-0.83 2.222-0.357 4.821 1.43 6.607l28.662 28.661c1.787 1.787 4.385 2.259 6.607 1.43 0.813-0.303 1.576-0.775 2.23-1.428 0-0.001 0.001-0.001 0.002-0.002l60.673-60.674 60.673 60.674c0.001 0 0.002 0.001 0.002 0.002 0.654 0.653 1.417 1.125 2.229 1.429 2.222 0.829 4.821 0.357 6.607-1.43l28.661-28.662c1.787-1.787 2.26-4.386 1.43-6.607-0.303-0.813-0.775-1.576-1.429-2.229z" fill="#b0b7c2"></path>
</svg>
