<?xml version="1.0" encoding="utf-8"?>
<!-- Generated by IcoMoon.io -->
<!DOCTYPE svg PUBLIC "-//W3C//DTD SVG 1.1//EN" "http://www.w3.org/Graphics/SVG/1.1/DTD/svg11.dtd">
<svg version="1.1" xmlns="http://www.w3.org/2000/svg" xmlns:xlink="http://www.w3.org/1999/xlink" width="200" height="200" viewBox="0 0 200 200">
<path d="M176.9 47.26c-5.020-29.78-32.2-49.67-60.69-44.41-28.5 5.25-52.54 28.16-47.52 57.94 1.090 6.41 4.080 16.45 7.63 23.65l-51.75 77.23c-1.91 2.85-2.99 7.99-2.42 11.41l3.33 19.71c0.58 3.42 3.73 5.72 7 5.12l15.16-2.79c3.28-0.61 7.43-3.49 9.24-6.41l20.65-33.31 13.85-2.56 23.89-38.78c7.86 1.39 19.12 0.92 25.78-0.31 28.51-5.26 40.88-36.71 35.85-66.49zM151.66 62.52c-7.84 11.69-15.83 3.45-27.030-4.75-11.19-8.19-21.35-13.23-13.51-24.92 7.84-11.7 23.26-14.55 34.46-6.35 11.2 8.19 13.92 24.33 6.080 36.020z" fill="#b0b7c2"></path>
</svg>
